<?xml version="1.0" encoding="utf-8"?>
<!-- Generator: Adobe Illustrator 16.0.3, SVG Export Plug-In . SVG Version: 6.00 Build 0)  -->
<!DOCTYPE svg PUBLIC "-//W3C//DTD SVG 1.1//EN" "http://www.w3.org/Graphics/SVG/1.1/DTD/svg11.dtd">
<svg version="1.1" id="BitGold_Brand_-_Light" xmlns="http://www.w3.org/2000/svg" xmlns:xlink="http://www.w3.org/1999/xlink"
	 x="0px" y="0px" width="407.667px" height="81.667px" viewBox="41.833 26.833 407.667 81.667"
	 enable-background="new 41.833 26.833 407.667 81.667" xml:space="preserve">
<g id="Type_1_">
	<g id="Bit">
		<g>
			<path fill="#FFFFFF" d="M168.715,69.255c3.041-1.22,5.475-3.064,7.299-5.538c1.825-2.472,2.737-5.64,2.737-9.501
				c0-3.455-0.744-6.367-2.23-8.739c-1.487-2.371-3.532-4.284-6.133-5.742c-2.603-1.456-5.677-2.489-9.226-3.099
				c-3.548-0.61-7.35-0.915-11.405-0.915c-1.419,0-2.939,0.035-4.562,0.102c-1.623,0.068-3.262,0.169-4.917,0.305
				c-1.657,0.136-3.295,0.305-4.917,0.508c-1.622,0.203-3.109,0.475-4.46,0.813v68.283c1.351,0.341,2.838,0.609,4.46,0.812
				c1.622,0.203,3.26,0.371,4.917,0.508c1.655,0.137,3.311,0.236,4.968,0.305c1.655,0.066,3.193,0.103,4.613,0.103
				c11.218,0,19.414-1.776,24.583-5.334c5.17-3.558,7.755-8.856,7.755-15.901c0-4.811-1.216-8.537-3.649-11.179
				C176.116,72.405,172.837,70.475,168.715,69.255z M140.633,44.36c1.148-0.135,2.433-0.237,3.853-0.305
				c1.419-0.067,3.378-0.102,5.879-0.102c2.5,0,4.866,0.203,7.096,0.609c2.231,0.407,4.173,1.034,5.83,1.88
				c1.655,0.849,2.956,1.966,3.903,3.354c0.945,1.389,1.419,3.099,1.419,5.131c0,2.169-0.456,3.963-1.368,5.385
				c-0.913,1.423-2.164,2.576-3.751,3.456c-1.589,0.881-3.464,1.491-5.626,1.829c-2.164,0.339-4.461,0.508-6.894,0.508h-10.34
				L140.633,44.36L140.633,44.36z M170.286,92.729c-1.184,1.693-2.754,3.015-4.714,3.963c-1.961,0.949-4.242,1.609-6.843,1.981
				c-2.603,0.372-5.357,0.558-8.263,0.558c-1.556,0-2.924-0.016-4.105-0.051c-1.184-0.033-2.215-0.084-3.092-0.152
				c-1.014-0.066-1.893-0.135-2.636-0.203V74.031h12.672c2.839,0,5.406,0.203,7.705,0.609c2.297,0.406,4.274,1.084,5.931,2.031
				c1.655,0.95,2.922,2.221,3.802,3.812c0.877,1.592,1.318,3.539,1.318,5.843C172.061,88.9,171.468,91.035,170.286,92.729z
				 M193.815,106.852h9.428V54.013h-9.428V106.852z M198.479,32.064c-1.69,0-3.127,0.559-4.309,1.676
				c-1.183,1.118-1.774,2.626-1.774,4.522c0,1.897,0.591,3.404,1.774,4.522c1.181,1.118,2.618,1.677,4.309,1.677
				c1.688,0,3.125-0.559,4.309-1.677c1.182-1.118,1.774-2.625,1.774-4.522c0-1.896-0.593-3.404-1.774-4.522
				C201.604,32.623,200.167,32.064,198.479,32.064z M246.217,97.301c-0.678,0.271-1.876,0.729-3.6,1.372
				c-1.724,0.644-4.005,0.966-6.844,0.966c-1.621,0-3.04-0.203-4.257-0.611c-1.217-0.405-2.23-1.1-3.042-2.082
				c-0.811-0.981-1.419-2.338-1.825-4.064c-0.405-1.727-0.607-3.912-0.607-6.554V61.938h19.972v-7.925h-19.972v-16.36l-9.428,1.625
				v47.149c0,3.522,0.286,6.622,0.861,9.298c0.574,2.676,1.571,4.93,2.99,6.758s3.295,3.201,5.627,4.115s5.287,1.371,8.87,1.371
				c3.041,0,5.744-0.355,8.11-1.066c2.365-0.711,4.021-1.305,4.968-1.778L246.217,97.301z"/>
		</g>
	</g>
	<g id="Gold">
		<g>
			<path fill="#FFFFFF" d="M299.824,98.418c-0.879,0.271-2.316,0.559-4.309,0.863c-1.994,0.305-4.41,0.458-7.248,0.458
				c-3.99,0-7.453-0.677-10.394-2.033c-2.938-1.354-5.406-3.267-7.399-5.741c-1.994-2.472-3.48-5.438-4.461-8.891
				c-0.979-3.455-1.47-7.281-1.47-11.482c0-4.334,0.573-8.247,1.724-11.736c1.148-3.488,2.754-6.452,4.815-8.891
				c2.062-2.438,4.562-4.301,7.501-5.588s6.201-1.931,9.783-1.931c3.38,0,6.691,0.424,9.936,1.27
				c3.243,0.849,5.846,1.915,7.807,3.201l3.143-8.23c-0.404-0.27-1.165-0.677-2.281-1.22c-1.115-0.542-2.551-1.083-4.309-1.625
				s-3.869-1.016-6.335-1.423c-2.47-0.406-5.29-0.609-8.466-0.609c-4.663,0-9.04,0.812-13.129,2.438
				c-4.09,1.626-7.653,3.998-10.694,7.113c-3.041,3.116-5.459,6.96-7.249,11.533c-1.791,4.572-2.686,9.806-2.686,15.699
				c0,5.894,0.793,11.11,2.381,15.648c1.588,4.54,3.836,8.366,6.742,11.481c2.904,3.116,6.387,5.487,10.441,7.112
				c4.055,1.626,8.549,2.438,13.482,2.438c2.434,0,4.832-0.118,7.197-0.354c2.365-0.237,4.545-0.526,6.539-0.864
				c1.992-0.338,3.752-0.676,5.271-1.016c1.521-0.338,2.688-0.643,3.498-0.915V72.202h-9.834v26.216H299.824z M362.83,60.312
				c-2.196-2.438-4.814-4.318-7.857-5.639c-3.039-1.321-6.353-1.981-9.935-1.981c-3.583,0-6.894,0.661-9.935,1.981
				c-3.041,1.321-5.662,3.201-7.857,5.639c-2.196,2.439-3.902,5.37-5.119,8.79c-1.217,3.422-1.825,7.199-1.825,11.33
				c0,4.201,0.608,7.994,1.825,11.381c1.217,3.389,2.923,6.301,5.119,8.738c2.195,2.438,4.816,4.318,7.857,5.641
				s6.352,1.98,9.935,1.98c3.582,0,6.896-0.66,9.935-1.98c3.043-1.321,5.661-3.201,7.857-5.641c2.195-2.438,3.902-5.351,5.119-8.738
				c1.218-3.387,1.824-7.18,1.824-11.381c0-4.131-0.606-7.908-1.824-11.33C366.732,65.683,365.025,62.751,362.83,60.312z
				 M355.938,94.607c-2.672,3.488-6.304,5.231-10.898,5.231c-4.598,0-8.229-1.743-10.896-5.231
				c-2.672-3.487-4.004-8.213-4.004-14.176c0-5.961,1.332-10.686,4.004-14.176c2.668-3.488,6.301-5.233,10.896-5.233
				s8.229,1.745,10.898,5.233c2.668,3.49,4.004,8.215,4.004,14.176C359.941,86.395,358.605,91.12,355.938,94.607z M391.812,97.809
				c-0.607-0.609-1.049-1.423-1.316-2.438c-0.271-1.017-0.406-2.302-0.406-3.86V28l-9.428,1.625v63.407
				c0,5.014,1.217,8.706,3.65,11.077c2.433,2.369,6.555,3.621,12.366,3.759l1.318-7.927c-1.487-0.202-2.738-0.457-3.752-0.762
				C393.232,98.875,392.422,98.418,391.812,97.809z M439.673,29.625V56.35c-1.148-0.745-2.889-1.525-5.22-2.337
				c-2.333-0.813-5.021-1.22-8.061-1.22c-3.785,0-7.146,0.678-10.088,2.032c-2.938,1.356-5.424,3.252-7.451,5.691
				c-2.026,2.439-3.564,5.352-4.611,8.739c-1.049,3.388-1.571,7.113-1.571,11.177c0,4.27,0.624,8.113,1.876,11.533
				c1.249,3.422,3.023,6.317,5.321,8.689c2.298,2.371,5.069,4.199,8.312,5.486c3.244,1.284,6.895,1.93,10.949,1.93
				c4.392,0,8.277-0.305,11.657-0.913c3.38-0.61,6.148-1.22,8.312-1.83V28L439.673,29.625z M439.673,98.621
				c-0.946,0.271-2.28,0.525-4.004,0.763c-1.723,0.237-3.869,0.355-6.438,0.355c-5.069,0-9.124-1.679-12.165-5.03
				c-3.041-3.354-4.562-8.111-4.562-14.277c0-2.707,0.271-5.248,0.812-7.619c0.54-2.371,1.419-4.42,2.636-6.148
				s2.787-3.082,4.714-4.064c1.927-0.981,4.241-1.474,6.944-1.474c2.567,0,4.933,0.442,7.097,1.321
				c2.162,0.881,3.816,1.796,4.967,2.744L439.673,98.621L439.673,98.621z"/>
		</g>
	</g>
</g>
<g id="Icon_1_">
	<g id="Main">
		<g>
			<path fill="#FFFFFF" d="M108.306,39.431h-31.73l0,0h-4.407c-2.434,0-4.407,1.973-4.407,4.407s1.973,4.407,4.407,4.407h29.527
				c1.217,0,2.204,0.986,2.204,2.203v44.069c0,1.219-0.986,2.205-2.204,2.205h-44.07c-1.217,0-2.203-0.986-2.203-2.205v-31.29
				c0-2.434-1.973-4.407-4.407-4.407s-4.407,1.973-4.407,4.407v6.17l0,0v31.729c0,2.435,1.973,4.406,4.407,4.406h57.291
				c2.434,0,4.407-1.974,4.407-4.406v-57.29C112.713,41.404,110.74,39.431,108.306,39.431z"/>
		</g>
	</g>
	<g id="Bit_2_">
		<g>
			<path fill="#FFCC0C" d="M58.066,33.261H46.608c-2.434,0-4.407,1.974-4.407,4.407v11.458c0,2.434,1.973,4.407,4.407,4.407h11.458
				c2.434,0,4.407-1.973,4.407-4.407V37.668C62.474,35.235,60.5,33.261,58.066,33.261z M58.948,47.805
				c0,1.217-0.986,2.203-2.204,2.203H47.93c-1.217,0-2.204-0.986-2.204-2.203v-8.814c0-1.217,0.987-2.204,2.204-2.204h8.814
				c1.217,0,2.204,0.986,2.204,2.204V47.805z"/>
		</g>
	</g>
</g>
</svg>
